<svg width="41" height="40" viewBox="0 0 41 40" fill="none" xmlns="http://www.w3.org/2000/svg">
<path d="M26.1461 24.096C26.1461 26.1606 25.9288 28.1165 25.4941 30.1811C24.6248 30.1811 23.7554 30.1811 22.8861 30.1811C20.8578 30.1811 18.8656 30.1811 16.9096 30.1811C16.5836 30.1811 16.475 30.0725 16.475 29.7465C16.3301 28.3701 16.149 26.9575 15.9316 25.5086C15.9316 25.2913 15.9316 25.1826 16.1489 24.9653C16.4749 24.748 16.8009 24.422 17.1269 24.2046C17.2356 24.096 17.3443 23.9873 17.4529 23.9873C20.2781 23.9873 23.1034 23.9873 25.9288 23.9873C26.0011 23.9873 26.0736 24.0235 26.1461 24.096Z" fill="#979FC5"/>
<path d="M36.4703 24.096C36.3978 25.7621 36.0357 27.356 35.3837 28.8771C35.2388 29.2395 35.094 29.6016 34.949 29.9638C34.949 30.0725 34.7317 30.1811 34.623 30.1811C32.2323 30.1811 29.8418 30.1811 27.4512 30.1811C27.4512 30.1811 27.4512 30.145 27.4512 30.0725C27.5598 29.3118 27.6685 28.5511 27.7772 27.7906C27.8495 26.6315 27.922 25.5086 27.9945 24.422C27.9945 24.096 28.1032 23.9873 28.3205 23.9873C30.9283 23.9873 33.5363 23.9873 36.1443 23.9873C36.2168 23.9873 36.3255 24.0235 36.4703 24.096Z" fill="#979FC5"/>
<path d="M27.4512 16.0547C28.4653 16.0547 29.5158 16.0547 30.6025 16.0547C31.9065 16.0547 33.2103 16.0547 34.5143 16.0547C34.7317 16.0547 34.949 16.1634 35.0577 16.3807C35.8545 18.1194 36.3255 20.0029 36.4703 22.0313C36.4703 22.0313 36.4703 22.0674 36.4703 22.1399C33.645 22.1399 30.856 22.1399 28.1032 22.1399C27.8858 20.1116 27.6685 18.0831 27.4512 16.0547Z" fill="#979FC5"/>
<path d="M14.5198 30.1811C14.5198 30.1811 14.4475 30.1811 14.3026 30.1811C12.0568 30.1811 9.81108 30.1811 7.56532 30.1811C7.23934 30.1811 7.13067 30.0725 7.02201 29.8551C6.22514 28.1165 5.75426 26.233 5.60938 24.2046C5.60938 24.2046 5.60938 24.1685 5.60938 24.096C5.68183 24.0235 5.79047 23.9873 5.93536 23.9873C8.03621 23.9873 10.1009 24.0235 12.1293 24.096C12.3466 24.096 12.5639 24.2046 12.6726 24.3133C13.1073 24.603 13.5057 24.8928 13.8679 25.1826C13.9765 25.1826 14.0852 25.2913 14.0852 25.4C14.2301 26.9936 14.375 28.5875 14.5198 30.1811Z" fill="#979FC5"/>
<path d="M17.0176 32.0283C19.7342 32.0283 22.3421 32.0283 25.0587 32.0283C24.9139 32.3905 24.8052 32.7528 24.7327 33.115C24.1894 34.419 23.6461 35.723 22.7767 36.701C22.3421 37.2442 21.6901 37.679 20.9296 37.679C20.2776 37.679 19.8427 37.2443 19.4081 36.8097C18.3216 35.723 17.3436 33.5497 17.0176 32.0283Z" fill="#979FC5"/>
<path d="M26.1472 22.1399C23.8652 22.1399 21.4745 22.1399 19.084 22.1399C19.2288 21.9951 19.3737 21.8139 19.5187 21.5966C20.9313 19.9666 22.1265 18.2279 23.1045 16.272C23.2131 16.1634 23.3218 16.0547 23.4305 16.0547C24.0825 16.0547 24.6258 16.0547 25.2778 16.0547C25.4952 16.0547 25.4952 16.1634 25.6038 16.3807C25.9298 18.2281 26.1472 20.0753 26.1472 22.0313C26.1472 22.0313 26.1472 22.0674 26.1472 22.1399Z" fill="#979FC5"/>
<path d="M33.6438 32.0283C32.5572 34.5277 27.0153 38.1135 23.9727 38.3308C24.4073 37.5702 24.9507 36.8097 25.3853 36.049C26.146 34.9623 26.472 33.6583 26.9067 32.463C26.9067 32.137 27.124 32.0283 27.45 32.0283C29.406 32.0283 31.362 32.0283 33.3178 32.0283C33.3903 32.0283 33.499 32.0283 33.6438 32.0283Z" fill="#979FC5"/>
<path d="M8.43359 32.0283C9.37534 32.0283 10.3171 32.0283 11.2588 32.0283C12.4179 32.0283 13.577 32.0283 14.7361 32.0283C14.9535 32.0283 15.0622 32.0283 15.1708 32.3543C15.6055 33.767 16.0401 35.1797 16.8008 36.4837C17.2355 37.1357 17.7788 37.6788 18.2135 38.3308C15.4968 38.4395 9.62891 34.6363 8.43359 32.0283Z" fill="#979FC5"/>
<path d="M33.7535 14.2076C33.1015 14.2076 32.5582 14.2076 32.1235 14.2076C30.5299 14.2076 28.9362 14.2076 27.3424 14.2076C27.0164 14.2076 27.0164 14.0989 26.9077 13.8816C26.473 12.2516 25.821 10.7303 24.9517 9.20899C24.7344 8.88299 24.7344 8.44834 24.7344 8.01367C28.429 8.99166 31.4715 11.0563 33.7535 14.2076Z" fill="#979FC5"/>
<path d="M7.02133 16.5981C8.10798 18.6627 9.41193 20.4014 10.9332 22.14C9.08593 22.14 7.3473 22.14 5.5 22.14C5.71733 20.184 6.15202 18.3367 7.02133 16.5981Z" fill="#979FC5"/>
<path d="M24.6254 12.686C24.7704 13.1932 24.9152 13.7002 25.06 14.2073C24.734 14.2073 24.408 14.2073 24.082 14.2073C24.227 13.7002 24.3719 13.1932 24.5167 12.686C24.5167 12.686 24.553 12.686 24.6254 12.686Z" fill="#979FC5"/>
<path fill-rule="evenodd" clip-rule="evenodd" d="M22.9943 10.1867C22.9943 11.5994 22.4509 13.2294 21.6903 14.8593C20.1689 18.1193 17.9958 20.8358 15.3878 23.3352C15.0618 23.5525 14.8444 23.5525 14.5184 23.2265C11.9105 20.8358 9.73718 18.0107 8.21588 14.7507C7.34654 13.012 6.80326 11.0561 7.02058 9.10009C7.12924 6.81812 8.10724 4.86217 9.95454 3.44954C13.6491 0.515584 18.8649 1.27621 21.5816 5.18814C22.4509 6.49212 22.9943 8.1221 22.9943 10.1867ZM20.0603 8.55675C20.0603 7.4701 19.6256 6.63702 18.7564 6.05749C18.2493 5.7677 17.6698 5.65902 17.0178 5.73147C16.4382 5.8039 15.9311 6.05747 15.4964 6.49214C15.3515 6.70947 15.1704 6.9268 14.9531 7.14414C14.8082 6.99924 14.6633 6.85437 14.5184 6.70947C13.8664 5.94882 12.9971 5.51414 11.9105 5.73147C10.8238 6.05747 10.0632 6.92679 9.95454 8.1221C9.88211 8.70165 9.99076 9.24497 10.2805 9.75209C10.7152 10.6214 11.2585 11.3821 11.9105 12.0341C12.5625 12.686 13.2869 13.3018 14.0838 13.8813C14.3736 14.0987 14.6633 14.316 14.9531 14.5333C14.9531 14.5333 14.9893 14.5333 15.0617 14.5333C15.9311 13.8813 16.8004 13.1207 17.6698 12.36C18.3218 11.708 18.9736 11.0561 19.4083 10.2954C19.7343 9.75209 19.9518 9.20875 20.0603 8.55675Z" fill="#979FC5"/>
</svg>
