<svg width="14" height="15" viewBox="0 0 14 15" fill="none" xmlns="http://www.w3.org/2000/svg">
<g clip-path="url(#clip0_246_629)">
<g clip-path="url(#clip1_246_629)">
<path fill-rule="evenodd" clip-rule="evenodd" d="M4.57031 11.6234L6.02544 12.0098V11.5045L6.14424 11.3856H6.97576V11.9801V12.3963H6.08487L4.98607 11.9207L4.57031 11.6234Z" fill="#CDBDB2"/>
<path fill-rule="evenodd" clip-rule="evenodd" d="M9.32105 11.6234L7.89558 12.0098V11.5045L7.77683 11.3856H6.94531V11.9801V12.3963H7.8362L8.93498 11.9207L9.32105 11.6234Z" fill="#CDBDB2"/>
<path fill-rule="evenodd" clip-rule="evenodd" d="M6.14414 10.5236L6.02539 11.5046L6.17385 11.3856H7.71808L7.89626 11.5046L7.77745 10.5236L7.5399 10.375L6.35203 10.4047L6.14414 10.5236Z" fill="#393939"/>
<path fill-rule="evenodd" clip-rule="evenodd" d="M5.3418 3.89507L6.05453 5.55964L6.38117 10.4047H7.53932L7.89568 5.55964L8.54902 3.89507H5.3418Z" fill="#F89C35"/>
<path fill-rule="evenodd" clip-rule="evenodd" d="M2.22408 7.55115L1.39258 9.95888L3.47133 9.83997H4.80768V8.79962L4.74828 6.65943L4.45132 6.89726L2.22408 7.55115Z" fill="#F89D35"/>
<path fill-rule="evenodd" clip-rule="evenodd" d="M3.79688 7.8187L6.232 7.87812L5.96473 9.12659L4.80656 8.82933L3.79688 7.8187Z" fill="#D87C30"/>
<path fill-rule="evenodd" clip-rule="evenodd" d="M3.79688 7.84841L4.80656 8.79956V9.75077L3.79688 7.84841Z" fill="#EA8D3A"/>
<path fill-rule="evenodd" clip-rule="evenodd" d="M4.80664 8.82928L5.99453 9.12654L6.38055 10.4047L6.11328 10.5533L4.80664 9.78048V8.82928Z" fill="#F89D35"/>
<path fill-rule="evenodd" clip-rule="evenodd" d="M4.80789 9.78049L4.57031 11.6234L6.14424 10.5236L4.80789 9.78049Z" fill="#EB8F35"/>
<path fill-rule="evenodd" clip-rule="evenodd" d="M6.23247 7.87813L6.38099 10.4047L5.93555 9.11171L6.23247 7.87813Z" fill="#EA8E3A"/>
<path fill-rule="evenodd" clip-rule="evenodd" d="M3.44141 9.8102L4.80744 9.78049L4.56986 11.6234L3.44141 9.8102Z" fill="#D87C30"/>
<path fill-rule="evenodd" clip-rule="evenodd" d="M2.0459 12.426L4.5701 11.6235L3.44163 9.81026L1.39258 9.95889L2.0459 12.426Z" fill="#EB8F35"/>
<path fill-rule="evenodd" clip-rule="evenodd" d="M6.05382 5.55962L4.77687 6.62971L3.79688 7.8187L6.232 7.90784L6.05382 5.55962Z" fill="#E8821E"/>
<path fill-rule="evenodd" clip-rule="evenodd" d="M4.57031 11.6234L6.14424 10.5236L6.02544 11.4748V12.0098L4.95638 11.8018L4.57031 11.6234Z" fill="#DFCEC3"/>
<path fill-rule="evenodd" clip-rule="evenodd" d="M9.32157 11.6234L7.77734 10.5236L7.89615 11.4748V12.0098L8.96521 11.8018L9.32157 11.6234Z" fill="#DFCEC3"/>
<path fill-rule="evenodd" clip-rule="evenodd" d="M5.57956 8.41316L5.90619 9.09682L4.74805 8.79957L5.57956 8.41316Z" fill="#393939"/>
<path fill-rule="evenodd" clip-rule="evenodd" d="M2.01562 2.49801L6.05437 5.55964L5.37132 3.89507L2.01562 2.49801Z" fill="#E88F35"/>
<path fill-rule="evenodd" clip-rule="evenodd" d="M2.01501 2.49802L1.48047 4.13287L1.77743 5.91633L1.56956 6.03525L1.86652 6.30276L1.62895 6.51081L1.95561 6.80807L1.74774 6.98641L2.22288 7.58093L4.45013 6.89727C5.53899 6.02533 6.07351 5.57945 6.05374 5.55965C6.03391 5.53982 4.68768 4.51929 2.01501 2.49802Z" fill="#8E5A30"/>
<path fill-rule="evenodd" clip-rule="evenodd" d="M11.6676 7.55115L12.4991 9.95888L10.4203 9.83997H9.08398V8.79962L9.14336 6.65943L9.44034 6.89726L11.6676 7.55115Z" fill="#F89D35"/>
<path fill-rule="evenodd" clip-rule="evenodd" d="M10.0933 7.8187L7.6582 7.87812L7.92547 9.12659L9.08362 8.82933L10.0933 7.8187Z" fill="#D87C30"/>
<path fill-rule="evenodd" clip-rule="evenodd" d="M10.0936 7.84841L9.08398 8.79956V9.75077L10.0936 7.84841Z" fill="#EA8D3A"/>
<path fill-rule="evenodd" clip-rule="evenodd" d="M9.08371 8.82928L7.89584 9.12654L7.50977 10.4047L7.77703 10.5533L9.08371 9.78048V8.82928Z" fill="#F89D35"/>
<path fill-rule="evenodd" clip-rule="evenodd" d="M9.08402 9.78049L9.32157 11.6234L7.77734 10.5533L9.08402 9.78049Z" fill="#EB8F35"/>
<path fill-rule="evenodd" clip-rule="evenodd" d="M7.65828 7.87813L7.50977 10.4047L7.95521 9.11171L7.65828 7.87813Z" fill="#EA8E3A"/>
<path fill-rule="evenodd" clip-rule="evenodd" d="M10.45 9.8102L9.08398 9.78049L9.32154 11.6234L10.45 9.8102Z" fill="#D87C30"/>
<path fill-rule="evenodd" clip-rule="evenodd" d="M11.8446 12.426L9.32031 11.6235L10.4488 9.81026L12.4979 9.95889L11.8446 12.426Z" fill="#EB8F35"/>
<path fill-rule="evenodd" clip-rule="evenodd" d="M7.83638 5.55962L9.11334 6.62971L10.0933 7.8187L7.6582 7.90784L7.83638 5.55962Z" fill="#E8821E"/>
<path fill-rule="evenodd" clip-rule="evenodd" d="M8.31107 8.41316L7.98438 9.09682L9.14259 8.79956L8.31107 8.41316Z" fill="#393939"/>
<path fill-rule="evenodd" clip-rule="evenodd" d="M11.8747 2.49801L7.83594 5.55964L8.51893 3.89507L11.8747 2.49801Z" fill="#E88F35"/>
<path fill-rule="evenodd" clip-rule="evenodd" d="M11.8752 2.49802L12.4097 4.13287L12.1128 5.91633L12.3206 6.03525L12.0237 6.30276L12.2612 6.51081L11.9346 6.80807L12.1424 6.98641L11.6673 7.58093L9.44012 6.89727C8.35123 6.02533 7.81669 5.57945 7.83647 5.55965C7.85629 5.53982 9.20251 4.51929 11.8752 2.49802Z" fill="#8E5A30"/>
</g>
</g>
<defs>
<clipPath id="clip0_246_629">
<rect width="13.33" height="13.33" fill="white" transform="translate(0.279297 0.830002)"/>
</clipPath>
<clipPath id="clip1_246_629">
<rect width="13.33" height="13.33" fill="white" transform="translate(0.279297 0.830002)"/>
</clipPath>
</defs>
</svg>
