<svg width="24" height="24" viewBox="0 0 24 24" fill="none" xmlns="http://www.w3.org/2000/svg">
<path fill-rule="evenodd" clip-rule="evenodd" d="M19.0659 7.48467C18.3474 8.28306 17.1498 8.20322 16.4313 7.48467C18.9063 9.95968 18.8264 13.9516 16.4313 16.3468C13.9562 18.8218 9.96429 18.742 7.56911 16.3468C7.56911 16.3468 7.56911 16.3468 7.56911 16.267C7.48927 16.267 7.48927 16.267 7.40943 16.1871C7.40943 16.1871 7.3296 16.1073 7.24976 16.1073C7.24976 16.0274 7.16992 16.0275 7.09008 15.9476C6.5312 15.7081 5.89249 15.7081 5.41346 15.9476C5.33362 16.0275 5.33362 16.0274 5.33362 16.0274C5.25378 16.0274 5.17394 16.1073 5.0941 16.1871C5.01426 16.1871 4.93442 16.267 4.93442 16.3468C4.21587 17.0654 4.21587 18.1831 4.93442 18.9815C8.7667 22.8936 15.1538 22.8936 19.0659 18.9815C22.9781 15.1492 22.9781 8.76209 19.0659 4.84998C19.7845 5.64837 19.7845 6.76611 19.0659 7.48467Z" fill="#5695DF"/>
<path fill-rule="evenodd" clip-rule="evenodd" d="M4.93409 4.8785C1.02197 8.71077 1.02197 15.0979 4.93409 19.01C4.21554 18.2116 4.21554 17.0939 4.93409 16.3753C5.65264 15.5769 6.85023 15.6568 7.56878 16.3753C5.09377 13.9003 5.1736 9.90836 7.56878 7.51319C10.0438 5.03817 14.0357 5.11801 16.4309 7.51319C17.1495 8.23174 18.3471 8.31158 19.0656 7.51319C19.7842 6.79463 19.7842 5.67689 19.0656 4.8785C17.1495 2.96236 14.5946 1.92445 11.9599 2.00429C9.48492 2.00429 6.93007 2.96236 4.93409 4.8785Z" fill="white"/>
</svg>
